<?xml version="1.0" encoding="UTF-8" standalone="no"?><svg xmlns="http://www.w3.org/2000/svg" xmlns:xlink="http://www.w3.org/1999/xlink" contentStyleType="text/css" height="225px" preserveAspectRatio="none" style="width:933px;height:225px;background:#00000000;" version="1.1" viewBox="0 0 933 225" width="933px" zoomAndPan="magnify"><defs/><g><!--MD5=[1f2cfc53d9d308f53762fd0fcbaa4873]
cluster Controller--><g id="cluster_Controller"><rect fill="none" height="212" rx="2.5" ry="2.5" style="stroke:#181818;stroke-width:1.0;" width="388" x="7" y="7"/><text fill="#000000" font-family="sans-serif" font-size="14" font-weight="bold" lengthAdjust="spacing" textLength="70" x="166" y="23.9659">Controller</text></g><!--MD5=[00d2b742c84eb79bfc1f61fe02e55ea0]
cluster Compute--><g id="cluster_Compute"><rect fill="none" height="103" rx="2.5" ry="2.5" style="stroke:#181818;stroke-width:1.0;" width="106" x="419" y="7"/><text fill="#000000" font-family="sans-serif" font-size="14" font-weight="bold" lengthAdjust="spacing" textLength="64" x="440" y="23.9659">Compute</text></g><!--MD5=[d811b360aa49ba14029aeed5cd763cda]
cluster Networking--><g id="cluster_Networking"><rect fill="none" height="103" rx="2.5" ry="2.5" style="stroke:#181818;stroke-width:1.0;" width="128" x="549" y="7"/><text fill="#000000" font-family="sans-serif" font-size="14" font-weight="bold" lengthAdjust="spacing" textLength="83" x="571.5" y="23.9659">Networking</text></g><!--MD5=[562ed55e840afc79d9783beef242227d]
cluster Storage--><g id="cluster_Storage"><rect fill="none" height="103" rx="2.5" ry="2.5" style="stroke:#181818;stroke-width:1.0;" width="226" x="701" y="7"/><text fill="#000000" font-family="sans-serif" font-size="14" font-weight="bold" lengthAdjust="spacing" textLength="54" x="787" y="23.9659">Storage</text></g><!--MD5=[f042970fa631b194e0ab6c1248938917]
entity N1--><g id="elem_N1"><polygon fill="#F4A261" points="23,55,33,45,97,45,97,84.0679,87,94.0679,23,94.0679,23,55" style="stroke:#181818;stroke-width:0.5;"/><line style="stroke:#181818;stroke-width:0.5;" x1="87" x2="97" y1="55" y2="45"/><line style="stroke:#181818;stroke-width:0.5;" x1="23" x2="87" y1="55" y2="55"/><line style="stroke:#181818;stroke-width:0.5;" x1="87" x2="87" y1="55" y2="94.0679"/><text fill="#000000" font-family="sans-serif" font-size="14" lengthAdjust="spacing" textLength="34" x="38" y="79.9659">Nova</text></g><!--MD5=[1efe831e7da3b9b03f2cb11fffcf97ab]
entity Keystone--><g id="elem_Keystone"><polygon fill="#F4A261" points="132.5,55,142.5,45,233.5,45,233.5,84.0679,223.5,94.0679,132.5,94.0679,132.5,55" style="stroke:#181818;stroke-width:0.5;"/><line style="stroke:#181818;stroke-width:0.5;" x1="223.5" x2="233.5" y1="55" y2="45"/><line style="stroke:#181818;stroke-width:0.5;" x1="132.5" x2="223.5" y1="55" y2="55"/><line style="stroke:#181818;stroke-width:0.5;" x1="223.5" x2="223.5" y1="55" y2="94.0679"/><text fill="#000000" font-family="sans-serif" font-size="14" lengthAdjust="spacing" textLength="61" x="147.5" y="79.9659">Keystone</text></g><!--MD5=[2863a66a0b47e1fbc17e5233ad5dbc19]
entity Placement--><g id="elem_Placement"><polygon fill="#F4A261" points="269,55,279,45,379,45,379,84.0679,369,94.0679,269,94.0679,269,55" style="stroke:#181818;stroke-width:0.5;"/><line style="stroke:#181818;stroke-width:0.5;" x1="369" x2="379" y1="55" y2="45"/><line style="stroke:#181818;stroke-width:0.5;" x1="269" x2="369" y1="55" y2="55"/><line style="stroke:#181818;stroke-width:0.5;" x1="369" x2="369" y1="55" y2="94.0679"/><text fill="#000000" font-family="sans-serif" font-size="14" lengthAdjust="spacing" textLength="70" x="284" y="79.9659">Placement</text></g><!--MD5=[76e7b5c806c45b86fec869c1b934a8f3]
entity Glance--><g id="elem_Glance"><polygon fill="#F4A261" points="23,164,33,154,109,154,109,193.0679,99,203.0679,23,203.0679,23,164" style="stroke:#181818;stroke-width:0.5;"/><line style="stroke:#181818;stroke-width:0.5;" x1="99" x2="109" y1="164" y2="154"/><line style="stroke:#181818;stroke-width:0.5;" x1="23" x2="99" y1="164" y2="164"/><line style="stroke:#181818;stroke-width:0.5;" x1="99" x2="99" y1="164" y2="203.0679"/><text fill="#000000" font-family="sans-serif" font-size="14" lengthAdjust="spacing" textLength="46" x="38" y="188.9659">Glance</text></g><!--MD5=[2454c6ea28b193a40926c3f0474702ca]
entity Horizon--><g id="elem_Horizon"><polygon fill="#F4A261" points="144,164,154,154,236,154,236,193.0679,226,203.0679,144,203.0679,144,164" style="stroke:#181818;stroke-width:0.5;"/><line style="stroke:#181818;stroke-width:0.5;" x1="226" x2="236" y1="164" y2="154"/><line style="stroke:#181818;stroke-width:0.5;" x1="144" x2="226" y1="164" y2="164"/><line style="stroke:#181818;stroke-width:0.5;" x1="226" x2="226" y1="164" y2="203.0679"/><text fill="#000000" font-family="sans-serif" font-size="14" lengthAdjust="spacing" textLength="52" x="159" y="188.9659">Horizon</text></g><!--MD5=[ce1d86443f850a1450f53f87c3db9b4f]
entity Heat--><g id="elem_Heat"><polygon fill="#F4A261" points="271.5,164,281.5,154,342.5,154,342.5,193.0679,332.5,203.0679,271.5,203.0679,271.5,164" style="stroke:#181818;stroke-width:0.5;"/><line style="stroke:#181818;stroke-width:0.5;" x1="332.5" x2="342.5" y1="164" y2="154"/><line style="stroke:#181818;stroke-width:0.5;" x1="271.5" x2="332.5" y1="164" y2="164"/><line style="stroke:#181818;stroke-width:0.5;" x1="332.5" x2="332.5" y1="164" y2="203.0679"/><text fill="#000000" font-family="sans-serif" font-size="14" lengthAdjust="spacing" textLength="31" x="286.5" y="188.9659">Heat</text></g><!--MD5=[4b5ab69de11007997fdc27e7483449f4]
entity N2--><g id="elem_N2"><polygon fill="#2A9D8F" points="435,55,445,45,509,45,509,84.0679,499,94.0679,435,94.0679,435,55" style="stroke:#181818;stroke-width:0.5;"/><line style="stroke:#181818;stroke-width:0.5;" x1="499" x2="509" y1="55" y2="45"/><line style="stroke:#181818;stroke-width:0.5;" x1="435" x2="499" y1="55" y2="55"/><line style="stroke:#181818;stroke-width:0.5;" x1="499" x2="499" y1="55" y2="94.0679"/><text fill="#000000" font-family="sans-serif" font-size="14" lengthAdjust="spacing" textLength="34" x="450" y="79.9659">Nova</text></g><!--MD5=[6cdfb2671d688b3a39e3f10254766fa1]
entity Neutron--><g id="elem_Neutron"><polygon fill="#FF70A6" points="565,55,575,45,661,45,661,84.0679,651,94.0679,565,94.0679,565,55" style="stroke:#181818;stroke-width:0.5;"/><line style="stroke:#181818;stroke-width:0.5;" x1="651" x2="661" y1="55" y2="45"/><line style="stroke:#181818;stroke-width:0.5;" x1="565" x2="651" y1="55" y2="55"/><line style="stroke:#181818;stroke-width:0.5;" x1="651" x2="651" y1="55" y2="94.0679"/><text fill="#000000" font-family="sans-serif" font-size="14" lengthAdjust="spacing" textLength="56" x="580" y="79.9659">Neutron</text></g><!--MD5=[356069fef172b8079974352d24148513]
entity Cinder--><g id="elem_Cinder"><polygon fill="#8ECAE6" points="825.5,55,835.5,45,910.5,45,910.5,84.0679,900.5,94.0679,825.5,94.0679,825.5,55" style="stroke:#181818;stroke-width:0.5;"/><line style="stroke:#181818;stroke-width:0.5;" x1="900.5" x2="910.5" y1="55" y2="45"/><line style="stroke:#181818;stroke-width:0.5;" x1="825.5" x2="900.5" y1="55" y2="55"/><line style="stroke:#181818;stroke-width:0.5;" x1="900.5" x2="900.5" y1="55" y2="94.0679"/><text fill="#000000" font-family="sans-serif" font-size="14" lengthAdjust="spacing" textLength="45" x="840.5" y="79.9659">Cinder</text></g><!--MD5=[151e09fb4d829607093fd8fd8cd561c3]
entity Swift--><g id="elem_Swift"><polygon fill="#8ECAE6" points="717.5,55,727.5,45,790.5,45,790.5,84.0679,780.5,94.0679,717.5,94.0679,717.5,55" style="stroke:#181818;stroke-width:0.5;"/><line style="stroke:#181818;stroke-width:0.5;" x1="780.5" x2="790.5" y1="55" y2="45"/><line style="stroke:#181818;stroke-width:0.5;" x1="717.5" x2="780.5" y1="55" y2="55"/><line style="stroke:#181818;stroke-width:0.5;" x1="780.5" x2="780.5" y1="55" y2="94.0679"/><text fill="#000000" font-family="sans-serif" font-size="14" lengthAdjust="spacing" textLength="33" x="732.5" y="79.9659">Swift</text></g><!--MD5=[51d8f9a989d92775997a670de31bab42]
@startuml
skinparam BackgroundColor transparent
skinparam componentStyle rectangle

component Controller {
	node Nova as N1 #f4a261
	node Keystone   #f4a261
	node Placement  #f4a261
	node Glance     #f4a261
	node Horizon    #f4a261
	node Heat       #f4a261
}

component Compute {
	node Nova as N2 #2a9d8f
}

component Networking {
	node Neutron   #ff70a6
}

component Storage {
	node Cinder    #8ecae6
	node Swift     #8ecae6
}
@enduml

PlantUML version 1.2022.7(Mon Aug 22 18:01:30 CET 2022)
(GPL source distribution)
Java Runtime: OpenJDK Runtime Environment
JVM: OpenJDK 64-Bit Server VM
Default Encoding: UTF-8
Language: en
Country: US
--></g></svg>