<?xml version="1.0" encoding="UTF-8" standalone="no"?><svg xmlns="http://www.w3.org/2000/svg" xmlns:xlink="http://www.w3.org/1999/xlink" contentStyleType="text/css" height="116px" preserveAspectRatio="none" style="width:986px;height:116px;background:#00000000;" version="1.1" viewBox="0 0 986 116" width="986px" zoomAndPan="magnify"><defs/><g><!--MD5=[77c7666a9437f78fb79aa59756a8a5ad]
cluster Compute 1--><g id="cluster_Compute 1"><rect fill="none" height="103" rx="2.5" ry="2.5" style="stroke:#181818;stroke-width:1.0;" width="106" x="7" y="7"/><text fill="#000000" font-family="sans-serif" font-size="14" font-weight="bold" lengthAdjust="spacing" textLength="76" x="22" y="23.9659">Compute 1</text></g><!--MD5=[6c907c656d5b92c6265bc22cd70f1dc8]
cluster Compute 2--><g id="cluster_Compute 2"><rect fill="none" height="103" rx="2.5" ry="2.5" style="stroke:#181818;stroke-width:1.0;" width="128" x="137" y="7"/><text fill="#000000" font-family="sans-serif" font-size="14" font-weight="bold" lengthAdjust="spacing" textLength="76" x="163" y="23.9659">Compute 2</text></g><!--MD5=[49e1170c3dfd2d1347a2badb14795f07]
cluster Compute 3--><g id="cluster_Compute 3"><rect fill="none" height="103" rx="2.5" ry="2.5" style="stroke:#181818;stroke-width:1.0;" width="142" x="289" y="7"/><text fill="#000000" font-family="sans-serif" font-size="14" font-weight="bold" lengthAdjust="spacing" textLength="76" x="322" y="23.9659">Compute 3</text></g><!--MD5=[1f2cfc53d9d308f53762fd0fcbaa4873]
cluster Controller--><g id="cluster_Controller"><rect fill="none" height="103" rx="2.5" ry="2.5" style="stroke:#181818;stroke-width:1.0;" width="219" x="455" y="7"/><text fill="#000000" font-family="sans-serif" font-size="14" font-weight="bold" lengthAdjust="spacing" textLength="70" x="529.5" y="23.9659">Controller</text></g><!--MD5=[29c1ab67d2e878075291253965276c88]
cluster Storage 1--><g id="cluster_Storage 1"><rect fill="none" height="103" rx="2.5" ry="2.5" style="stroke:#181818;stroke-width:1.0;" width="140" x="698" y="7"/><text fill="#000000" font-family="sans-serif" font-size="14" font-weight="bold" lengthAdjust="spacing" textLength="66" x="735" y="23.9659">Storage 1</text></g><!--MD5=[4ff9c07f9e00948888b1c41f6582b31d]
cluster Storage 2--><g id="cluster_Storage 2"><rect fill="none" height="103" rx="2.5" ry="2.5" style="stroke:#181818;stroke-width:1.0;" width="118" x="862" y="7"/><text fill="#000000" font-family="sans-serif" font-size="14" font-weight="bold" lengthAdjust="spacing" textLength="66" x="888" y="23.9659">Storage 2</text></g><!--MD5=[acc35136daa1965b6fda1e1ebe04062a]
entity Essia--><g id="elem_Essia"><polygon fill="#2A9D8F" points="23,55,33,45,97,45,97,84.0679,87,94.0679,23,94.0679,23,55" style="stroke:#181818;stroke-width:0.5;"/><line style="stroke:#181818;stroke-width:0.5;" x1="87" x2="97" y1="55" y2="45"/><line style="stroke:#181818;stroke-width:0.5;" x1="23" x2="87" y1="55" y2="55"/><line style="stroke:#181818;stroke-width:0.5;" x1="87" x2="87" y1="55" y2="94.0679"/><text fill="#000000" font-family="sans-serif" font-size="14" lengthAdjust="spacing" textLength="34" x="38" y="79.9659">Essia</text></g><!--MD5=[a12c0b578dda09f912d4fc7b594b71dd]
entity Nayrouz--><g id="elem_Nayrouz"><polygon fill="#2A9D8F" points="153,55,163,45,249,45,249,84.0679,239,94.0679,153,94.0679,153,55" style="stroke:#181818;stroke-width:0.5;"/><line style="stroke:#181818;stroke-width:0.5;" x1="239" x2="249" y1="55" y2="45"/><line style="stroke:#181818;stroke-width:0.5;" x1="153" x2="239" y1="55" y2="55"/><line style="stroke:#181818;stroke-width:0.5;" x1="239" x2="239" y1="55" y2="94.0679"/><text fill="#000000" font-family="sans-serif" font-size="14" lengthAdjust="spacing" textLength="56" x="168" y="79.9659">Nayrouz</text></g><!--MD5=[d151fd1a6b3b440b076d5c03370ea872]
entity Oumayma--><g id="elem_Oumayma"><polygon fill="#2A9D8F" points="305.5,55,315.5,45,414.5,45,414.5,84.0679,404.5,94.0679,305.5,94.0679,305.5,55" style="stroke:#181818;stroke-width:0.5;"/><line style="stroke:#181818;stroke-width:0.5;" x1="404.5" x2="414.5" y1="55" y2="45"/><line style="stroke:#181818;stroke-width:0.5;" x1="305.5" x2="404.5" y1="55" y2="55"/><line style="stroke:#181818;stroke-width:0.5;" x1="404.5" x2="404.5" y1="55" y2="94.0679"/><text fill="#000000" font-family="sans-serif" font-size="14" lengthAdjust="spacing" textLength="69" x="320.5" y="79.9659">Oumayma</text></g><!--MD5=[34acac307c107791763ddd5829fbdde4]
entity Khalil--><g id="elem_Khalil"><polygon fill="#F4A261" points="580,55,590,45,658,45,658,84.0679,648,94.0679,580,94.0679,580,55" style="stroke:#181818;stroke-width:0.5;"/><line style="stroke:#181818;stroke-width:0.5;" x1="648" x2="658" y1="55" y2="45"/><line style="stroke:#181818;stroke-width:0.5;" x1="580" x2="648" y1="55" y2="55"/><line style="stroke:#181818;stroke-width:0.5;" x1="648" x2="648" y1="55" y2="94.0679"/><text fill="#000000" font-family="sans-serif" font-size="14" lengthAdjust="spacing" textLength="38" x="595" y="79.9659">Khalil</text></g><!--MD5=[cd2a98d820da32f935bb956895344a13]
entity Taha--><g id="elem_Taha"><polygon fill="#F4A261" points="471.5,55,481.5,45,544.5,45,544.5,84.0679,534.5,94.0679,471.5,94.0679,471.5,55" style="stroke:#181818;stroke-width:0.5;"/><line style="stroke:#181818;stroke-width:0.5;" x1="534.5" x2="544.5" y1="55" y2="45"/><line style="stroke:#181818;stroke-width:0.5;" x1="471.5" x2="534.5" y1="55" y2="55"/><line style="stroke:#181818;stroke-width:0.5;" x1="534.5" x2="534.5" y1="55" y2="94.0679"/><text fill="#000000" font-family="sans-serif" font-size="14" lengthAdjust="spacing" textLength="33" x="486.5" y="79.9659">Taha</text></g><!--MD5=[b01fb5bd1ff74523e26e164773e0f645]
entity Mohamed--><g id="elem_Mohamed"><polygon fill="#8ECAE6" points="714,55,724,45,822,45,822,84.0679,812,94.0679,714,94.0679,714,55" style="stroke:#181818;stroke-width:0.5;"/><line style="stroke:#181818;stroke-width:0.5;" x1="812" x2="822" y1="55" y2="45"/><line style="stroke:#181818;stroke-width:0.5;" x1="714" x2="812" y1="55" y2="55"/><line style="stroke:#181818;stroke-width:0.5;" x1="812" x2="812" y1="55" y2="94.0679"/><text fill="#000000" font-family="sans-serif" font-size="14" lengthAdjust="spacing" textLength="68" x="729" y="79.9659">Mohamed</text></g><!--MD5=[a58d95696ab5400b531f2ae46d49e307]
entity Farouk--><g id="elem_Farouk"><polygon fill="#8ECAE6" points="878.5,55,888.5,45,963.5,45,963.5,84.0679,953.5,94.0679,878.5,94.0679,878.5,55" style="stroke:#181818;stroke-width:0.5;"/><line style="stroke:#181818;stroke-width:0.5;" x1="953.5" x2="963.5" y1="55" y2="45"/><line style="stroke:#181818;stroke-width:0.5;" x1="878.5" x2="953.5" y1="55" y2="55"/><line style="stroke:#181818;stroke-width:0.5;" x1="953.5" x2="953.5" y1="55" y2="94.0679"/><text fill="#000000" font-family="sans-serif" font-size="14" lengthAdjust="spacing" textLength="45" x="893.5" y="79.9659">Farouk</text></g><!--MD5=[a9e3f79f5d5970cecbab9524cd120128]
@startuml
skinparam BackgroundColor transparent
skinparam componentStyle rectangle

component "Compute 1" {
	node Essia   #2a9d8f
}

component "Compute 2" {
	node Nayrouz #2a9d8f
}

component "Compute 3" {
	node Oumayma #2a9d8f
}

component "Controller" {
	node Khalil  #f4a261
	node Taha    #f4a261
}

component "Storage 1" {
	node Mohamed #8ecae6
}

component "Storage 2" {
	node Farouk  #8ecae6
}
@enduml

PlantUML version 1.2022.7(Mon Aug 22 18:01:30 CET 2022)
(GPL source distribution)
Java Runtime: OpenJDK Runtime Environment
JVM: OpenJDK 64-Bit Server VM
Default Encoding: UTF-8
Language: en
Country: US
--></g></svg>