<?xml version="1.0" encoding="UTF-8" standalone="no"?><svg xmlns="http://www.w3.org/2000/svg" xmlns:xlink="http://www.w3.org/1999/xlink" contentStyleType="text/css" height="116px" preserveAspectRatio="none" style="width:986px;height:116px;" version="1.1" viewBox="0 0 986 116" width="986px" zoomAndPan="magnify"><defs/><g><!--cluster Compute 1--><g id="cluster_Compute 1"><rect fill="none" height="103" rx="2.5" ry="2.5" style="stroke:#181818;stroke-width:1.0;" width="140" x="7" y="7"/><text fill="#000000" font-family="sans-serif" font-size="14" font-weight="bold" lengthAdjust="spacing" textLength="76" x="39" y="23.9659">Compute 1</text></g><!--cluster Compute 2--><g id="cluster_Compute 2"><rect fill="none" height="103" rx="2.5" ry="2.5" style="stroke:#181818;stroke-width:1.0;" width="128" x="171" y="7"/><text fill="#000000" font-family="sans-serif" font-size="14" font-weight="bold" lengthAdjust="spacing" textLength="76" x="197" y="23.9659">Compute 2</text></g><!--cluster Compute 3--><g id="cluster_Compute 3"><rect fill="none" height="103" rx="2.5" ry="2.5" style="stroke:#181818;stroke-width:1.0;" width="142" x="323" y="7"/><text fill="#000000" font-family="sans-serif" font-size="14" font-weight="bold" lengthAdjust="spacing" textLength="76" x="356" y="23.9659">Compute 3</text></g><!--cluster Compute 4--><g id="cluster_Compute 4"><rect fill="none" height="103" rx="2.5" ry="2.5" style="stroke:#181818;stroke-width:1.0;" width="118" x="489" y="7"/><text fill="#000000" font-family="sans-serif" font-size="14" font-weight="bold" lengthAdjust="spacing" textLength="76" x="510" y="23.9659">Compute 4</text></g><!--cluster Controller--><g id="cluster_Controller"><rect fill="none" height="103" rx="2.5" ry="2.5" style="stroke:#181818;stroke-width:1.0;" width="106" x="631" y="7"/><text fill="#000000" font-family="sans-serif" font-size="14" font-weight="bold" lengthAdjust="spacing" textLength="70" x="649" y="23.9659">Controller</text></g><!--cluster Storage--><g id="cluster_Storage"><rect fill="none" height="103" rx="2.5" ry="2.5" style="stroke:#181818;stroke-width:1.0;" width="219" x="761" y="7"/><text fill="#000000" font-family="sans-serif" font-size="14" font-weight="bold" lengthAdjust="spacing" textLength="54" x="843.5" y="23.9659">Storage</text></g><!--entity Mohamed--><g id="elem_Mohamed"><polygon fill="#2A9D8F" points="23,55,33,45,131,45,131,84.0679,121,94.0679,23,94.0679,23,55" style="stroke:#181818;stroke-width:0.5;"/><line style="stroke:#181818;stroke-width:0.5;" x1="121" x2="131" y1="55" y2="45"/><line style="stroke:#181818;stroke-width:0.5;" x1="23" x2="121" y1="55" y2="55"/><line style="stroke:#181818;stroke-width:0.5;" x1="121" x2="121" y1="55" y2="94.0679"/><text fill="#000000" font-family="sans-serif" font-size="14" lengthAdjust="spacing" textLength="68" x="38" y="79.9659">Mohamed</text></g><!--entity Nayrouz--><g id="elem_Nayrouz"><polygon fill="#2A9D8F" points="187,55,197,45,283,45,283,84.0679,273,94.0679,187,94.0679,187,55" style="stroke:#181818;stroke-width:0.5;"/><line style="stroke:#181818;stroke-width:0.5;" x1="273" x2="283" y1="55" y2="45"/><line style="stroke:#181818;stroke-width:0.5;" x1="187" x2="273" y1="55" y2="55"/><line style="stroke:#181818;stroke-width:0.5;" x1="273" x2="273" y1="55" y2="94.0679"/><text fill="#000000" font-family="sans-serif" font-size="14" lengthAdjust="spacing" textLength="56" x="202" y="79.9659">Nayrouz</text></g><!--entity Oumayma--><g id="elem_Oumayma"><polygon fill="#2A9D8F" points="339.5,55,349.5,45,448.5,45,448.5,84.0679,438.5,94.0679,339.5,94.0679,339.5,55" style="stroke:#181818;stroke-width:0.5;"/><line style="stroke:#181818;stroke-width:0.5;" x1="438.5" x2="448.5" y1="55" y2="45"/><line style="stroke:#181818;stroke-width:0.5;" x1="339.5" x2="438.5" y1="55" y2="55"/><line style="stroke:#181818;stroke-width:0.5;" x1="438.5" x2="438.5" y1="55" y2="94.0679"/><text fill="#000000" font-family="sans-serif" font-size="14" lengthAdjust="spacing" textLength="69" x="354.5" y="79.9659">Oumayma</text></g><!--entity Farouk--><g id="elem_Farouk"><polygon fill="#2A9D8F" points="505.5,55,515.5,45,590.5,45,590.5,84.0679,580.5,94.0679,505.5,94.0679,505.5,55" style="stroke:#181818;stroke-width:0.5;"/><line style="stroke:#181818;stroke-width:0.5;" x1="580.5" x2="590.5" y1="55" y2="45"/><line style="stroke:#181818;stroke-width:0.5;" x1="505.5" x2="580.5" y1="55" y2="55"/><line style="stroke:#181818;stroke-width:0.5;" x1="580.5" x2="580.5" y1="55" y2="94.0679"/><text fill="#000000" font-family="sans-serif" font-size="14" lengthAdjust="spacing" textLength="45" x="520.5" y="79.9659">Farouk</text></g><!--entity Essia--><g id="elem_Essia"><polygon fill="#F4A261" points="647,55,657,45,721,45,721,84.0679,711,94.0679,647,94.0679,647,55" style="stroke:#181818;stroke-width:0.5;"/><line style="stroke:#181818;stroke-width:0.5;" x1="711" x2="721" y1="55" y2="45"/><line style="stroke:#181818;stroke-width:0.5;" x1="647" x2="711" y1="55" y2="55"/><line style="stroke:#181818;stroke-width:0.5;" x1="711" x2="711" y1="55" y2="94.0679"/><text fill="#000000" font-family="sans-serif" font-size="14" lengthAdjust="spacing" textLength="34" x="662" y="79.9659">Essia</text></g><!--entity Taha--><g id="elem_Taha"><polygon fill="#F4A261" points="890.5,55,900.5,45,963.5,45,963.5,84.0679,953.5,94.0679,890.5,94.0679,890.5,55" style="stroke:#181818;stroke-width:0.5;"/><line style="stroke:#181818;stroke-width:0.5;" x1="953.5" x2="963.5" y1="55" y2="45"/><line style="stroke:#181818;stroke-width:0.5;" x1="890.5" x2="953.5" y1="55" y2="55"/><line style="stroke:#181818;stroke-width:0.5;" x1="953.5" x2="953.5" y1="55" y2="94.0679"/><text fill="#000000" font-family="sans-serif" font-size="14" lengthAdjust="spacing" textLength="33" x="905.5" y="79.9659">Taha</text></g><!--entity Khalil--><g id="elem_Khalil"><polygon fill="#F4A261" points="777,55,787,45,855,45,855,84.0679,845,94.0679,777,94.0679,777,55" style="stroke:#181818;stroke-width:0.5;"/><line style="stroke:#181818;stroke-width:0.5;" x1="845" x2="855" y1="55" y2="45"/><line style="stroke:#181818;stroke-width:0.5;" x1="777" x2="845" y1="55" y2="55"/><line style="stroke:#181818;stroke-width:0.5;" x1="845" x2="845" y1="55" y2="94.0679"/><text fill="#000000" font-family="sans-serif" font-size="14" lengthAdjust="spacing" textLength="38" x="792" y="79.9659">Khalil</text></g><!--SRC=[XSzDRi8m40NWTNsA4Po05A5sMrGsg7H1B_2K34aKUmRP4w4KzUur0X5QjM9dZTytFwbhPO-8G2yekpfgBzLIlKQo24dvYyLSkgPA3NkLNDlQu9aYbmQfFTz6F59QgTYvpw5fZPsxGfeiyxCtfjc4Zkv1j69wqmQ1AoAQ5dYkddRkwqzIZ6I38M_xUGSyZk2z3nW2xe3v25R80xh_LnABwZt7axYGrvHQqEcCtHp5OlRBR4qZQXv7VA3v4JzNrmryws-QV0C0]--></g></svg>